<svg xmlns="http://www.w3.org/2000/svg" viewBox="0 0 24 24" width="24" height="24">
  <path fill="#4285F4" d="M23.745 12.27c0-.7-.06-1.4-.19-2.07H12v3.92h6.69c-.29 1.5-1.14 2.78-2.42 4.14v3.44h3.91c2.28-2.1 3.6-5.19 3.6-8.81z"/>
  <path fill="#34A853" d="M12 24c3.24 0 5.95-1.08 7.93-2.91l-3.91-3.44c-1.08.72-2.47 1.15-4.02 1.15-3.09 0-5.71-2.09-6.64-4.9H1.32v3.56A11.98 11.98 0 0 0 12 24z"/>
  <path fill="#FBBC05" d="M5.36 13.91A7.19 7.19 0 0 1 5 12c0-.67.11-1.32.32-1.91V6.53H1.32A11.94 11.94 0 0 0 0 12c0 2.01.5 3.91 1.32 5.47l4.04-3.56z"/>
  <path fill="#EA4335" d="M12 4.75c1.77 0 3.35.61 4.6 1.8l3.42-3.42C17.95 1.19 15.24 0 12 0A11.98 11.98 0 0 0 1.32 6.53l4.04 3.56c.93-2.81 3.55-4.9 6.64-4.9z"/>
</svg>
